<mxfile host="Electron" agent="Mozilla/5.0 (Windows NT 10.0; Win64; x64) AppleWebKit/537.36 (KHTML, like Gecko) draw.io/26.0.9 Chrome/128.0.6613.186 Electron/32.2.5 Safari/537.36" version="26.0.9" pages="2">
  <diagram name="fixed-how-it-works" id="1wKoMZSucWN3Eg3S5IWj">
    <mxGraphModel dx="1434" dy="836" grid="1" gridSize="5" guides="1" tooltips="1" connect="1" arrows="1" fold="1" page="1" pageScale="1" pageWidth="1169" pageHeight="827" math="0" shadow="0">
      <root>
        <mxCell id="0" />
        <mxCell id="1" parent="0" />
        <mxCell id="nZrIzRFGk8cbZhAz8b9w-1" value="Non-current&lt;div&gt;bucket 1&lt;/div&gt;" style="rounded=0;whiteSpace=wrap;html=1;verticalAlign=top;fillColor=none;" parent="1" vertex="1">
          <mxGeometry x="40" y="80" width="100" height="160" as="geometry" />
        </mxCell>
        <mxCell id="nZrIzRFGk8cbZhAz8b9w-5" value="Non-current&lt;div&gt;bucket 2&lt;/div&gt;" style="rounded=0;whiteSpace=wrap;html=1;verticalAlign=top;fillColor=none;" parent="1" vertex="1">
          <mxGeometry x="140" y="80" width="100" height="160" as="geometry" />
        </mxCell>
        <mxCell id="nZrIzRFGk8cbZhAz8b9w-11" value="Non-current&lt;div&gt;bucket 3&lt;/div&gt;" style="rounded=0;whiteSpace=wrap;html=1;verticalAlign=top;fillColor=none;" parent="1" vertex="1">
          <mxGeometry x="240" y="80" width="100" height="160" as="geometry" />
        </mxCell>
        <mxCell id="nZrIzRFGk8cbZhAz8b9w-12" value="Non-current&lt;div&gt;bucket 4&lt;/div&gt;" style="rounded=0;whiteSpace=wrap;html=1;verticalAlign=top;fillColor=none;" parent="1" vertex="1">
          <mxGeometry x="340" y="80" width="100" height="160" as="geometry" />
        </mxCell>
        <mxCell id="nZrIzRFGk8cbZhAz8b9w-13" value="Non-current&lt;div&gt;bucket 5&lt;/div&gt;" style="rounded=0;whiteSpace=wrap;html=1;verticalAlign=top;fillColor=none;" parent="1" vertex="1">
          <mxGeometry x="440" y="80" width="100" height="160" as="geometry" />
        </mxCell>
        <mxCell id="nZrIzRFGk8cbZhAz8b9w-14" value="Non-current&lt;div&gt;bucket 6&lt;/div&gt;" style="rounded=0;whiteSpace=wrap;html=1;verticalAlign=top;fillColor=none;" parent="1" vertex="1">
          <mxGeometry x="540" y="80" width="100" height="160" as="geometry" />
        </mxCell>
        <mxCell id="nZrIzRFGk8cbZhAz8b9w-3" value="" style="endArrow=classic;startArrow=classic;html=1;rounded=0;startSize=5;endSize=5;" parent="1" edge="1">
          <mxGeometry width="50" height="50" relative="1" as="geometry">
            <mxPoint x="40" y="280" as="sourcePoint" />
            <mxPoint x="640" y="280" as="targetPoint" />
          </mxGeometry>
        </mxCell>
        <mxCell id="nZrIzRFGk8cbZhAz8b9w-15" value="Window length" style="text;html=1;align=center;verticalAlign=middle;whiteSpace=wrap;rounded=0;" parent="1" vertex="1">
          <mxGeometry x="40" y="285" width="600" height="20" as="geometry" />
        </mxCell>
        <mxCell id="nZrIzRFGk8cbZhAz8b9w-18" value="" style="endArrow=classic;html=1;rounded=0;endSize=5;startSize=5;" parent="1" edge="1">
          <mxGeometry width="50" height="50" relative="1" as="geometry">
            <mxPoint x="40" y="40" as="sourcePoint" />
            <mxPoint x="700" y="40" as="targetPoint" />
          </mxGeometry>
        </mxCell>
        <mxCell id="nZrIzRFGk8cbZhAz8b9w-19" value="Earlier" style="text;html=1;align=left;verticalAlign=middle;whiteSpace=wrap;rounded=0;" parent="1" vertex="1">
          <mxGeometry x="40" y="20" width="70" height="15" as="geometry" />
        </mxCell>
        <mxCell id="nZrIzRFGk8cbZhAz8b9w-21" value="Now" style="text;html=1;align=right;verticalAlign=middle;whiteSpace=wrap;rounded=0;" parent="1" vertex="1">
          <mxGeometry x="630" y="20" width="70" height="15" as="geometry" />
        </mxCell>
        <mxCell id="nZrIzRFGk8cbZhAz8b9w-23" value="" style="ellipse;whiteSpace=wrap;html=1;aspect=fixed;fillColor=#dae8fc;strokeColor=#6c8ebf;" parent="1" vertex="1">
          <mxGeometry x="650" y="125" width="10" height="10" as="geometry" />
        </mxCell>
        <mxCell id="nZrIzRFGk8cbZhAz8b9w-24" value="" style="ellipse;whiteSpace=wrap;html=1;aspect=fixed;fillColor=#dae8fc;strokeColor=#6c8ebf;" parent="1" vertex="1">
          <mxGeometry x="665" y="125" width="10" height="10" as="geometry" />
        </mxCell>
        <mxCell id="nZrIzRFGk8cbZhAz8b9w-26" value="" style="ellipse;whiteSpace=wrap;html=1;aspect=fixed;fillColor=#dae8fc;strokeColor=#6c8ebf;" parent="1" vertex="1">
          <mxGeometry x="680" y="125" width="10" height="10" as="geometry" />
        </mxCell>
        <mxCell id="nZrIzRFGk8cbZhAz8b9w-27" value="" style="ellipse;whiteSpace=wrap;html=1;aspect=fixed;fillColor=#dae8fc;strokeColor=#6c8ebf;direction=south;" parent="1" vertex="1">
          <mxGeometry x="650" y="140" width="10" height="10" as="geometry" />
        </mxCell>
        <mxCell id="nZrIzRFGk8cbZhAz8b9w-30" value="" style="ellipse;whiteSpace=wrap;html=1;aspect=fixed;fillColor=#d5e8d4;strokeColor=#82b366;" parent="1" vertex="1">
          <mxGeometry x="650" y="175" width="10" height="10" as="geometry" />
        </mxCell>
        <mxCell id="nZrIzRFGk8cbZhAz8b9w-31" value="" style="ellipse;whiteSpace=wrap;html=1;aspect=fixed;fillColor=#d5e8d4;strokeColor=#82b366;" parent="1" vertex="1">
          <mxGeometry x="665" y="175" width="10" height="10" as="geometry" />
        </mxCell>
        <mxCell id="nZrIzRFGk8cbZhAz8b9w-39" value="" style="ellipse;whiteSpace=wrap;html=1;aspect=fixed;fillColor=#ffe6cc;strokeColor=#d79b00;" parent="1" vertex="1">
          <mxGeometry x="650" y="210" width="10" height="10" as="geometry" />
        </mxCell>
        <mxCell id="nZrIzRFGk8cbZhAz8b9w-42" value="" style="ellipse;whiteSpace=wrap;html=1;aspect=fixed;fillColor=#dae8fc;strokeColor=#6c8ebf;" parent="1" vertex="1">
          <mxGeometry x="570" y="125" width="10" height="10" as="geometry" />
        </mxCell>
        <mxCell id="nZrIzRFGk8cbZhAz8b9w-43" value="" style="ellipse;whiteSpace=wrap;html=1;aspect=fixed;fillColor=#dae8fc;strokeColor=#6c8ebf;" parent="1" vertex="1">
          <mxGeometry x="585" y="125" width="10" height="10" as="geometry" />
        </mxCell>
        <mxCell id="nZrIzRFGk8cbZhAz8b9w-44" value="" style="ellipse;whiteSpace=wrap;html=1;aspect=fixed;fillColor=#dae8fc;strokeColor=#6c8ebf;" parent="1" vertex="1">
          <mxGeometry x="600" y="125" width="10" height="10" as="geometry" />
        </mxCell>
        <mxCell id="nZrIzRFGk8cbZhAz8b9w-45" value="" style="ellipse;whiteSpace=wrap;html=1;aspect=fixed;fillColor=#dae8fc;strokeColor=#6c8ebf;direction=south;" parent="1" vertex="1">
          <mxGeometry x="570" y="140" width="10" height="10" as="geometry" />
        </mxCell>
        <mxCell id="nZrIzRFGk8cbZhAz8b9w-46" value="" style="ellipse;whiteSpace=wrap;html=1;aspect=fixed;fillColor=#dae8fc;strokeColor=#6c8ebf;direction=south;" parent="1" vertex="1">
          <mxGeometry x="585" y="140" width="10" height="10" as="geometry" />
        </mxCell>
        <mxCell id="nZrIzRFGk8cbZhAz8b9w-47" value="" style="ellipse;whiteSpace=wrap;html=1;aspect=fixed;fillColor=#dae8fc;strokeColor=#6c8ebf;" parent="1" vertex="1">
          <mxGeometry x="600" y="140" width="10" height="10" as="geometry" />
        </mxCell>
        <mxCell id="nZrIzRFGk8cbZhAz8b9w-48" value="" style="ellipse;whiteSpace=wrap;html=1;aspect=fixed;fillColor=#d5e8d4;strokeColor=#82b366;" parent="1" vertex="1">
          <mxGeometry x="570" y="175" width="10" height="10" as="geometry" />
        </mxCell>
        <mxCell id="nZrIzRFGk8cbZhAz8b9w-49" value="" style="ellipse;whiteSpace=wrap;html=1;aspect=fixed;fillColor=#d5e8d4;strokeColor=#82b366;" parent="1" vertex="1">
          <mxGeometry x="585" y="175" width="10" height="10" as="geometry" />
        </mxCell>
        <mxCell id="nZrIzRFGk8cbZhAz8b9w-50" value="" style="ellipse;whiteSpace=wrap;html=1;aspect=fixed;fillColor=#d5e8d4;strokeColor=#82b366;" parent="1" vertex="1">
          <mxGeometry x="600" y="175" width="10" height="10" as="geometry" />
        </mxCell>
        <mxCell id="nZrIzRFGk8cbZhAz8b9w-51" value="" style="ellipse;whiteSpace=wrap;html=1;aspect=fixed;fillColor=#dae8fc;strokeColor=#6c8ebf;direction=south;" parent="1" vertex="1">
          <mxGeometry x="570" y="155" width="10" height="10" as="geometry" />
        </mxCell>
        <mxCell id="nZrIzRFGk8cbZhAz8b9w-52" value="" style="ellipse;whiteSpace=wrap;html=1;aspect=fixed;fillColor=#dae8fc;strokeColor=#6c8ebf;direction=south;" parent="1" vertex="1">
          <mxGeometry x="585" y="155" width="10" height="10" as="geometry" />
        </mxCell>
        <mxCell id="nZrIzRFGk8cbZhAz8b9w-54" value="" style="ellipse;whiteSpace=wrap;html=1;aspect=fixed;fillColor=#d5e8d4;strokeColor=#82b366;" parent="1" vertex="1">
          <mxGeometry x="570" y="190" width="10" height="10" as="geometry" />
        </mxCell>
        <mxCell id="nZrIzRFGk8cbZhAz8b9w-57" value="" style="ellipse;whiteSpace=wrap;html=1;aspect=fixed;fillColor=#ffe6cc;strokeColor=#d79b00;" parent="1" vertex="1">
          <mxGeometry x="570" y="210" width="10" height="10" as="geometry" />
        </mxCell>
        <mxCell id="nZrIzRFGk8cbZhAz8b9w-58" value="" style="ellipse;whiteSpace=wrap;html=1;aspect=fixed;fillColor=#ffe6cc;strokeColor=#d79b00;" parent="1" vertex="1">
          <mxGeometry x="585" y="210" width="10" height="10" as="geometry" />
        </mxCell>
        <mxCell id="nZrIzRFGk8cbZhAz8b9w-59" value="" style="ellipse;whiteSpace=wrap;html=1;aspect=fixed;fillColor=#ffe6cc;strokeColor=#d79b00;" parent="1" vertex="1">
          <mxGeometry x="600" y="210" width="10" height="10" as="geometry" />
        </mxCell>
        <mxCell id="nZrIzRFGk8cbZhAz8b9w-60" value="" style="ellipse;whiteSpace=wrap;html=1;aspect=fixed;fillColor=#dae8fc;strokeColor=#6c8ebf;" parent="1" vertex="1">
          <mxGeometry x="470" y="125" width="10" height="10" as="geometry" />
        </mxCell>
        <mxCell id="nZrIzRFGk8cbZhAz8b9w-61" value="" style="ellipse;whiteSpace=wrap;html=1;aspect=fixed;fillColor=#dae8fc;strokeColor=#6c8ebf;" parent="1" vertex="1">
          <mxGeometry x="485" y="125" width="10" height="10" as="geometry" />
        </mxCell>
        <mxCell id="nZrIzRFGk8cbZhAz8b9w-62" value="" style="ellipse;whiteSpace=wrap;html=1;aspect=fixed;fillColor=#dae8fc;strokeColor=#6c8ebf;" parent="1" vertex="1">
          <mxGeometry x="500" y="125" width="10" height="10" as="geometry" />
        </mxCell>
        <mxCell id="nZrIzRFGk8cbZhAz8b9w-63" value="" style="ellipse;whiteSpace=wrap;html=1;aspect=fixed;fillColor=#dae8fc;strokeColor=#6c8ebf;direction=south;" parent="1" vertex="1">
          <mxGeometry x="470" y="140" width="10" height="10" as="geometry" />
        </mxCell>
        <mxCell id="nZrIzRFGk8cbZhAz8b9w-64" value="" style="ellipse;whiteSpace=wrap;html=1;aspect=fixed;fillColor=#dae8fc;strokeColor=#6c8ebf;direction=south;" parent="1" vertex="1">
          <mxGeometry x="485" y="140" width="10" height="10" as="geometry" />
        </mxCell>
        <mxCell id="nZrIzRFGk8cbZhAz8b9w-65" value="" style="ellipse;whiteSpace=wrap;html=1;aspect=fixed;fillColor=#dae8fc;strokeColor=#6c8ebf;" parent="1" vertex="1">
          <mxGeometry x="500" y="140" width="10" height="10" as="geometry" />
        </mxCell>
        <mxCell id="nZrIzRFGk8cbZhAz8b9w-66" value="" style="ellipse;whiteSpace=wrap;html=1;aspect=fixed;fillColor=#d5e8d4;strokeColor=#82b366;" parent="1" vertex="1">
          <mxGeometry x="470" y="175" width="10" height="10" as="geometry" />
        </mxCell>
        <mxCell id="nZrIzRFGk8cbZhAz8b9w-67" value="" style="ellipse;whiteSpace=wrap;html=1;aspect=fixed;fillColor=#d5e8d4;strokeColor=#82b366;" parent="1" vertex="1">
          <mxGeometry x="485" y="175" width="10" height="10" as="geometry" />
        </mxCell>
        <mxCell id="nZrIzRFGk8cbZhAz8b9w-68" value="" style="ellipse;whiteSpace=wrap;html=1;aspect=fixed;fillColor=#d5e8d4;strokeColor=#82b366;" parent="1" vertex="1">
          <mxGeometry x="500" y="175" width="10" height="10" as="geometry" />
        </mxCell>
        <mxCell id="nZrIzRFGk8cbZhAz8b9w-72" value="" style="ellipse;whiteSpace=wrap;html=1;aspect=fixed;fillColor=#d5e8d4;strokeColor=#82b366;" parent="1" vertex="1">
          <mxGeometry x="470" y="190" width="10" height="10" as="geometry" />
        </mxCell>
        <mxCell id="nZrIzRFGk8cbZhAz8b9w-73" value="" style="ellipse;whiteSpace=wrap;html=1;aspect=fixed;fillColor=#d5e8d4;strokeColor=#82b366;" parent="1" vertex="1">
          <mxGeometry x="485" y="190" width="10" height="10" as="geometry" />
        </mxCell>
        <mxCell id="nZrIzRFGk8cbZhAz8b9w-75" value="" style="ellipse;whiteSpace=wrap;html=1;aspect=fixed;fillColor=#ffe6cc;strokeColor=#d79b00;" parent="1" vertex="1">
          <mxGeometry x="470" y="210" width="10" height="10" as="geometry" />
        </mxCell>
        <mxCell id="nZrIzRFGk8cbZhAz8b9w-78" value="" style="ellipse;whiteSpace=wrap;html=1;aspect=fixed;fillColor=#dae8fc;strokeColor=#6c8ebf;" parent="1" vertex="1">
          <mxGeometry x="370" y="125" width="10" height="10" as="geometry" />
        </mxCell>
        <mxCell id="nZrIzRFGk8cbZhAz8b9w-79" value="" style="ellipse;whiteSpace=wrap;html=1;aspect=fixed;fillColor=#dae8fc;strokeColor=#6c8ebf;" parent="1" vertex="1">
          <mxGeometry x="385" y="125" width="10" height="10" as="geometry" />
        </mxCell>
        <mxCell id="nZrIzRFGk8cbZhAz8b9w-80" value="" style="ellipse;whiteSpace=wrap;html=1;aspect=fixed;fillColor=#dae8fc;strokeColor=#6c8ebf;" parent="1" vertex="1">
          <mxGeometry x="400" y="125" width="10" height="10" as="geometry" />
        </mxCell>
        <mxCell id="nZrIzRFGk8cbZhAz8b9w-81" value="" style="ellipse;whiteSpace=wrap;html=1;aspect=fixed;fillColor=#dae8fc;strokeColor=#6c8ebf;direction=south;" parent="1" vertex="1">
          <mxGeometry x="370" y="140" width="10" height="10" as="geometry" />
        </mxCell>
        <mxCell id="nZrIzRFGk8cbZhAz8b9w-82" value="" style="ellipse;whiteSpace=wrap;html=1;aspect=fixed;fillColor=#dae8fc;strokeColor=#6c8ebf;direction=south;" parent="1" vertex="1">
          <mxGeometry x="385" y="140" width="10" height="10" as="geometry" />
        </mxCell>
        <mxCell id="nZrIzRFGk8cbZhAz8b9w-83" value="" style="ellipse;whiteSpace=wrap;html=1;aspect=fixed;fillColor=#dae8fc;strokeColor=#6c8ebf;" parent="1" vertex="1">
          <mxGeometry x="400" y="140" width="10" height="10" as="geometry" />
        </mxCell>
        <mxCell id="nZrIzRFGk8cbZhAz8b9w-84" value="" style="ellipse;whiteSpace=wrap;html=1;aspect=fixed;fillColor=#d5e8d4;strokeColor=#82b366;" parent="1" vertex="1">
          <mxGeometry x="370" y="175" width="10" height="10" as="geometry" />
        </mxCell>
        <mxCell id="nZrIzRFGk8cbZhAz8b9w-85" value="" style="ellipse;whiteSpace=wrap;html=1;aspect=fixed;fillColor=#d5e8d4;strokeColor=#82b366;" parent="1" vertex="1">
          <mxGeometry x="385" y="175" width="10" height="10" as="geometry" />
        </mxCell>
        <mxCell id="nZrIzRFGk8cbZhAz8b9w-86" value="" style="ellipse;whiteSpace=wrap;html=1;aspect=fixed;fillColor=#d5e8d4;strokeColor=#82b366;" parent="1" vertex="1">
          <mxGeometry x="400" y="175" width="10" height="10" as="geometry" />
        </mxCell>
        <mxCell id="nZrIzRFGk8cbZhAz8b9w-87" value="" style="ellipse;whiteSpace=wrap;html=1;aspect=fixed;fillColor=#dae8fc;strokeColor=#6c8ebf;direction=south;" parent="1" vertex="1">
          <mxGeometry x="370" y="155" width="10" height="10" as="geometry" />
        </mxCell>
        <mxCell id="nZrIzRFGk8cbZhAz8b9w-90" value="" style="ellipse;whiteSpace=wrap;html=1;aspect=fixed;fillColor=#d5e8d4;strokeColor=#82b366;" parent="1" vertex="1">
          <mxGeometry x="370" y="190" width="10" height="10" as="geometry" />
        </mxCell>
        <mxCell id="nZrIzRFGk8cbZhAz8b9w-91" value="" style="ellipse;whiteSpace=wrap;html=1;aspect=fixed;fillColor=#d5e8d4;strokeColor=#82b366;" parent="1" vertex="1">
          <mxGeometry x="385" y="190" width="10" height="10" as="geometry" />
        </mxCell>
        <mxCell id="nZrIzRFGk8cbZhAz8b9w-92" value="" style="ellipse;whiteSpace=wrap;html=1;aspect=fixed;fillColor=#d5e8d4;strokeColor=#82b366;" parent="1" vertex="1">
          <mxGeometry x="400" y="190" width="10" height="10" as="geometry" />
        </mxCell>
        <mxCell id="nZrIzRFGk8cbZhAz8b9w-93" value="" style="ellipse;whiteSpace=wrap;html=1;aspect=fixed;fillColor=#ffe6cc;strokeColor=#d79b00;" parent="1" vertex="1">
          <mxGeometry x="370" y="210" width="10" height="10" as="geometry" />
        </mxCell>
        <mxCell id="nZrIzRFGk8cbZhAz8b9w-94" value="" style="ellipse;whiteSpace=wrap;html=1;aspect=fixed;fillColor=#ffe6cc;strokeColor=#d79b00;" parent="1" vertex="1">
          <mxGeometry x="385" y="210" width="10" height="10" as="geometry" />
        </mxCell>
        <mxCell id="nZrIzRFGk8cbZhAz8b9w-95" value="" style="ellipse;whiteSpace=wrap;html=1;aspect=fixed;fillColor=#ffe6cc;strokeColor=#d79b00;" parent="1" vertex="1">
          <mxGeometry x="400" y="210" width="10" height="10" as="geometry" />
        </mxCell>
        <mxCell id="nZrIzRFGk8cbZhAz8b9w-96" value="" style="ellipse;whiteSpace=wrap;html=1;aspect=fixed;fillColor=#dae8fc;strokeColor=#6c8ebf;" parent="1" vertex="1">
          <mxGeometry x="270" y="125" width="10" height="10" as="geometry" />
        </mxCell>
        <mxCell id="nZrIzRFGk8cbZhAz8b9w-97" value="" style="ellipse;whiteSpace=wrap;html=1;aspect=fixed;fillColor=#dae8fc;strokeColor=#6c8ebf;" parent="1" vertex="1">
          <mxGeometry x="285" y="125" width="10" height="10" as="geometry" />
        </mxCell>
        <mxCell id="nZrIzRFGk8cbZhAz8b9w-98" value="" style="ellipse;whiteSpace=wrap;html=1;aspect=fixed;fillColor=#dae8fc;strokeColor=#6c8ebf;" parent="1" vertex="1">
          <mxGeometry x="300" y="125" width="10" height="10" as="geometry" />
        </mxCell>
        <mxCell id="nZrIzRFGk8cbZhAz8b9w-99" value="" style="ellipse;whiteSpace=wrap;html=1;aspect=fixed;fillColor=#dae8fc;strokeColor=#6c8ebf;direction=south;" parent="1" vertex="1">
          <mxGeometry x="270" y="140" width="10" height="10" as="geometry" />
        </mxCell>
        <mxCell id="nZrIzRFGk8cbZhAz8b9w-100" value="" style="ellipse;whiteSpace=wrap;html=1;aspect=fixed;fillColor=#dae8fc;strokeColor=#6c8ebf;direction=south;" parent="1" vertex="1">
          <mxGeometry x="285" y="140" width="10" height="10" as="geometry" />
        </mxCell>
        <mxCell id="nZrIzRFGk8cbZhAz8b9w-102" value="" style="ellipse;whiteSpace=wrap;html=1;aspect=fixed;fillColor=#d5e8d4;strokeColor=#82b366;" parent="1" vertex="1">
          <mxGeometry x="270" y="175" width="10" height="10" as="geometry" />
        </mxCell>
        <mxCell id="nZrIzRFGk8cbZhAz8b9w-103" value="" style="ellipse;whiteSpace=wrap;html=1;aspect=fixed;fillColor=#d5e8d4;strokeColor=#82b366;" parent="1" vertex="1">
          <mxGeometry x="285" y="175" width="10" height="10" as="geometry" />
        </mxCell>
        <mxCell id="nZrIzRFGk8cbZhAz8b9w-104" value="" style="ellipse;whiteSpace=wrap;html=1;aspect=fixed;fillColor=#d5e8d4;strokeColor=#82b366;" parent="1" vertex="1">
          <mxGeometry x="300" y="175" width="10" height="10" as="geometry" />
        </mxCell>
        <mxCell id="nZrIzRFGk8cbZhAz8b9w-111" value="" style="ellipse;whiteSpace=wrap;html=1;aspect=fixed;fillColor=#ffe6cc;strokeColor=#d79b00;" parent="1" vertex="1">
          <mxGeometry x="270" y="210" width="10" height="10" as="geometry" />
        </mxCell>
        <mxCell id="nZrIzRFGk8cbZhAz8b9w-112" value="" style="ellipse;whiteSpace=wrap;html=1;aspect=fixed;fillColor=#ffe6cc;strokeColor=#d79b00;" parent="1" vertex="1">
          <mxGeometry x="285" y="210" width="10" height="10" as="geometry" />
        </mxCell>
        <mxCell id="nZrIzRFGk8cbZhAz8b9w-114" value="" style="ellipse;whiteSpace=wrap;html=1;aspect=fixed;fillColor=#dae8fc;strokeColor=#6c8ebf;" parent="1" vertex="1">
          <mxGeometry x="170" y="125" width="10" height="10" as="geometry" />
        </mxCell>
        <mxCell id="nZrIzRFGk8cbZhAz8b9w-115" value="" style="ellipse;whiteSpace=wrap;html=1;aspect=fixed;fillColor=#dae8fc;strokeColor=#6c8ebf;" parent="1" vertex="1">
          <mxGeometry x="185" y="125" width="10" height="10" as="geometry" />
        </mxCell>
        <mxCell id="nZrIzRFGk8cbZhAz8b9w-116" value="" style="ellipse;whiteSpace=wrap;html=1;aspect=fixed;fillColor=#dae8fc;strokeColor=#6c8ebf;" parent="1" vertex="1">
          <mxGeometry x="200" y="125" width="10" height="10" as="geometry" />
        </mxCell>
        <mxCell id="nZrIzRFGk8cbZhAz8b9w-117" value="" style="ellipse;whiteSpace=wrap;html=1;aspect=fixed;fillColor=#dae8fc;strokeColor=#6c8ebf;direction=south;" parent="1" vertex="1">
          <mxGeometry x="170" y="140" width="10" height="10" as="geometry" />
        </mxCell>
        <mxCell id="nZrIzRFGk8cbZhAz8b9w-118" value="" style="ellipse;whiteSpace=wrap;html=1;aspect=fixed;fillColor=#dae8fc;strokeColor=#6c8ebf;direction=south;" parent="1" vertex="1">
          <mxGeometry x="185" y="140" width="10" height="10" as="geometry" />
        </mxCell>
        <mxCell id="nZrIzRFGk8cbZhAz8b9w-119" value="" style="ellipse;whiteSpace=wrap;html=1;aspect=fixed;fillColor=#dae8fc;strokeColor=#6c8ebf;" parent="1" vertex="1">
          <mxGeometry x="200" y="140" width="10" height="10" as="geometry" />
        </mxCell>
        <mxCell id="nZrIzRFGk8cbZhAz8b9w-120" value="" style="ellipse;whiteSpace=wrap;html=1;aspect=fixed;fillColor=#d5e8d4;strokeColor=#82b366;" parent="1" vertex="1">
          <mxGeometry x="170" y="175" width="10" height="10" as="geometry" />
        </mxCell>
        <mxCell id="nZrIzRFGk8cbZhAz8b9w-121" value="" style="ellipse;whiteSpace=wrap;html=1;aspect=fixed;fillColor=#d5e8d4;strokeColor=#82b366;" parent="1" vertex="1">
          <mxGeometry x="185" y="175" width="10" height="10" as="geometry" />
        </mxCell>
        <mxCell id="nZrIzRFGk8cbZhAz8b9w-122" value="" style="ellipse;whiteSpace=wrap;html=1;aspect=fixed;fillColor=#d5e8d4;strokeColor=#82b366;" parent="1" vertex="1">
          <mxGeometry x="200" y="175" width="10" height="10" as="geometry" />
        </mxCell>
        <mxCell id="nZrIzRFGk8cbZhAz8b9w-123" value="" style="ellipse;whiteSpace=wrap;html=1;aspect=fixed;fillColor=#dae8fc;strokeColor=#6c8ebf;direction=south;" parent="1" vertex="1">
          <mxGeometry x="170" y="155" width="10" height="10" as="geometry" />
        </mxCell>
        <mxCell id="nZrIzRFGk8cbZhAz8b9w-124" value="" style="ellipse;whiteSpace=wrap;html=1;aspect=fixed;fillColor=#dae8fc;strokeColor=#6c8ebf;direction=south;" parent="1" vertex="1">
          <mxGeometry x="185" y="155" width="10" height="10" as="geometry" />
        </mxCell>
        <mxCell id="nZrIzRFGk8cbZhAz8b9w-126" value="" style="ellipse;whiteSpace=wrap;html=1;aspect=fixed;fillColor=#d5e8d4;strokeColor=#82b366;" parent="1" vertex="1">
          <mxGeometry x="170" y="190" width="10" height="10" as="geometry" />
        </mxCell>
        <mxCell id="nZrIzRFGk8cbZhAz8b9w-127" value="" style="ellipse;whiteSpace=wrap;html=1;aspect=fixed;fillColor=#d5e8d4;strokeColor=#82b366;" parent="1" vertex="1">
          <mxGeometry x="185" y="190" width="10" height="10" as="geometry" />
        </mxCell>
        <mxCell id="nZrIzRFGk8cbZhAz8b9w-129" value="" style="ellipse;whiteSpace=wrap;html=1;aspect=fixed;fillColor=#ffe6cc;strokeColor=#d79b00;" parent="1" vertex="1">
          <mxGeometry x="170" y="210" width="10" height="10" as="geometry" />
        </mxCell>
        <mxCell id="nZrIzRFGk8cbZhAz8b9w-130" value="" style="ellipse;whiteSpace=wrap;html=1;aspect=fixed;fillColor=#ffe6cc;strokeColor=#d79b00;" parent="1" vertex="1">
          <mxGeometry x="185" y="210" width="10" height="10" as="geometry" />
        </mxCell>
        <mxCell id="nZrIzRFGk8cbZhAz8b9w-131" value="" style="ellipse;whiteSpace=wrap;html=1;aspect=fixed;fillColor=#ffe6cc;strokeColor=#d79b00;" parent="1" vertex="1">
          <mxGeometry x="200" y="210" width="10" height="10" as="geometry" />
        </mxCell>
        <mxCell id="nZrIzRFGk8cbZhAz8b9w-132" value="" style="ellipse;whiteSpace=wrap;html=1;aspect=fixed;fillColor=#dae8fc;strokeColor=#6c8ebf;" parent="1" vertex="1">
          <mxGeometry x="70" y="125" width="10" height="10" as="geometry" />
        </mxCell>
        <mxCell id="nZrIzRFGk8cbZhAz8b9w-133" value="" style="ellipse;whiteSpace=wrap;html=1;aspect=fixed;fillColor=#dae8fc;strokeColor=#6c8ebf;" parent="1" vertex="1">
          <mxGeometry x="85" y="125" width="10" height="10" as="geometry" />
        </mxCell>
        <mxCell id="nZrIzRFGk8cbZhAz8b9w-134" value="" style="ellipse;whiteSpace=wrap;html=1;aspect=fixed;fillColor=#dae8fc;strokeColor=#6c8ebf;" parent="1" vertex="1">
          <mxGeometry x="100" y="125" width="10" height="10" as="geometry" />
        </mxCell>
        <mxCell id="nZrIzRFGk8cbZhAz8b9w-135" value="" style="ellipse;whiteSpace=wrap;html=1;aspect=fixed;fillColor=#dae8fc;strokeColor=#6c8ebf;direction=south;" parent="1" vertex="1">
          <mxGeometry x="70" y="140" width="10" height="10" as="geometry" />
        </mxCell>
        <mxCell id="nZrIzRFGk8cbZhAz8b9w-136" value="" style="ellipse;whiteSpace=wrap;html=1;aspect=fixed;fillColor=#dae8fc;strokeColor=#6c8ebf;direction=south;" parent="1" vertex="1">
          <mxGeometry x="85" y="140" width="10" height="10" as="geometry" />
        </mxCell>
        <mxCell id="nZrIzRFGk8cbZhAz8b9w-138" value="" style="ellipse;whiteSpace=wrap;html=1;aspect=fixed;fillColor=#d5e8d4;strokeColor=#82b366;" parent="1" vertex="1">
          <mxGeometry x="70" y="175" width="10" height="10" as="geometry" />
        </mxCell>
        <mxCell id="nZrIzRFGk8cbZhAz8b9w-139" value="" style="ellipse;whiteSpace=wrap;html=1;aspect=fixed;fillColor=#d5e8d4;strokeColor=#82b366;" parent="1" vertex="1">
          <mxGeometry x="85" y="175" width="10" height="10" as="geometry" />
        </mxCell>
        <mxCell id="nZrIzRFGk8cbZhAz8b9w-147" value="" style="ellipse;whiteSpace=wrap;html=1;aspect=fixed;fillColor=#ffe6cc;strokeColor=#d79b00;" parent="1" vertex="1">
          <mxGeometry x="70" y="210" width="10" height="10" as="geometry" />
        </mxCell>
        <mxCell id="nZrIzRFGk8cbZhAz8b9w-148" value="" style="ellipse;whiteSpace=wrap;html=1;aspect=fixed;fillColor=#ffe6cc;strokeColor=#d79b00;" parent="1" vertex="1">
          <mxGeometry x="85" y="210" width="10" height="10" as="geometry" />
        </mxCell>
        <mxCell id="nZrIzRFGk8cbZhAz8b9w-150" value="" style="endArrow=classic;html=1;rounded=0;dashed=1;dashPattern=1 2;startSize=5;endSize=5;" parent="1" edge="1">
          <mxGeometry width="50" height="50" relative="1" as="geometry">
            <mxPoint x="650" y="230" as="sourcePoint" />
            <mxPoint x="620" y="230" as="targetPoint" />
          </mxGeometry>
        </mxCell>
        <mxCell id="nZrIzRFGk8cbZhAz8b9w-151" value="" style="endArrow=classic;html=1;rounded=0;dashed=1;dashPattern=1 2;startSize=5;endSize=5;" parent="1" edge="1">
          <mxGeometry width="50" height="50" relative="1" as="geometry">
            <mxPoint x="550" y="230" as="sourcePoint" />
            <mxPoint x="520" y="230" as="targetPoint" />
          </mxGeometry>
        </mxCell>
        <mxCell id="nZrIzRFGk8cbZhAz8b9w-152" value="" style="endArrow=classic;html=1;rounded=0;dashed=1;dashPattern=1 2;startSize=5;endSize=5;" parent="1" edge="1">
          <mxGeometry width="50" height="50" relative="1" as="geometry">
            <mxPoint x="450" y="230" as="sourcePoint" />
            <mxPoint x="420" y="230" as="targetPoint" />
          </mxGeometry>
        </mxCell>
        <mxCell id="nZrIzRFGk8cbZhAz8b9w-153" value="" style="endArrow=classic;html=1;rounded=0;dashed=1;dashPattern=1 2;startSize=5;endSize=5;" parent="1" edge="1">
          <mxGeometry width="50" height="50" relative="1" as="geometry">
            <mxPoint x="350" y="230" as="sourcePoint" />
            <mxPoint x="320" y="230" as="targetPoint" />
          </mxGeometry>
        </mxCell>
        <mxCell id="nZrIzRFGk8cbZhAz8b9w-154" value="" style="endArrow=classic;html=1;rounded=0;dashed=1;dashPattern=1 2;startSize=5;endSize=5;" parent="1" edge="1">
          <mxGeometry width="50" height="50" relative="1" as="geometry">
            <mxPoint x="250" y="230" as="sourcePoint" />
            <mxPoint x="220" y="230" as="targetPoint" />
          </mxGeometry>
        </mxCell>
        <mxCell id="nZrIzRFGk8cbZhAz8b9w-155" value="" style="endArrow=classic;html=1;rounded=0;dashed=1;dashPattern=1 2;startSize=5;endSize=5;" parent="1" edge="1">
          <mxGeometry width="50" height="50" relative="1" as="geometry">
            <mxPoint x="150" y="230" as="sourcePoint" />
            <mxPoint x="120" y="230" as="targetPoint" />
          </mxGeometry>
        </mxCell>
        <mxCell id="nZrIzRFGk8cbZhAz8b9w-156" value="" style="endArrow=classic;html=1;rounded=0;dashed=1;dashPattern=1 2;startSize=5;endSize=5;" parent="1" edge="1">
          <mxGeometry width="50" height="50" relative="1" as="geometry">
            <mxPoint x="50" y="230" as="sourcePoint" />
            <mxPoint x="20" y="230" as="targetPoint" />
          </mxGeometry>
        </mxCell>
        <mxCell id="nZrIzRFGk8cbZhAz8b9w-157" value="" style="endArrow=none;html=1;rounded=0;exitX=1;exitY=0;exitDx=0;exitDy=0;" parent="1" source="nZrIzRFGk8cbZhAz8b9w-14" edge="1">
          <mxGeometry width="50" height="50" relative="1" as="geometry">
            <mxPoint x="525" y="315" as="sourcePoint" />
            <mxPoint x="700" y="80" as="targetPoint" />
          </mxGeometry>
        </mxCell>
        <mxCell id="nZrIzRFGk8cbZhAz8b9w-158" value="" style="endArrow=none;html=1;rounded=0;exitX=1;exitY=0;exitDx=0;exitDy=0;" parent="1" edge="1">
          <mxGeometry width="50" height="50" relative="1" as="geometry">
            <mxPoint x="640" y="240" as="sourcePoint" />
            <mxPoint x="700" y="240" as="targetPoint" />
          </mxGeometry>
        </mxCell>
        <mxCell id="nZrIzRFGk8cbZhAz8b9w-159" value="Current&lt;div&gt;bucket&lt;/div&gt;" style="text;html=1;align=center;verticalAlign=middle;whiteSpace=wrap;rounded=0;" parent="1" vertex="1">
          <mxGeometry x="640" y="86" width="60" height="30" as="geometry" />
        </mxCell>
        <mxCell id="nZrIzRFGk8cbZhAz8b9w-161" value="" style="ellipse;whiteSpace=wrap;html=1;aspect=fixed;fillColor=#dae8fc;strokeColor=#6c8ebf;direction=south;" parent="1" vertex="1">
          <mxGeometry x="720" y="140" width="10" height="10" as="geometry" />
        </mxCell>
        <mxCell id="nZrIzRFGk8cbZhAz8b9w-162" value="" style="ellipse;whiteSpace=wrap;html=1;aspect=fixed;fillColor=#d5e8d4;strokeColor=#82b366;" parent="1" vertex="1">
          <mxGeometry x="720" y="175" width="10" height="10" as="geometry" />
        </mxCell>
        <mxCell id="nZrIzRFGk8cbZhAz8b9w-163" value="" style="ellipse;whiteSpace=wrap;html=1;aspect=fixed;fillColor=#ffe6cc;strokeColor=#d79b00;" parent="1" vertex="1">
          <mxGeometry x="720" y="210" width="10" height="10" as="geometry" />
        </mxCell>
        <mxCell id="nZrIzRFGk8cbZhAz8b9w-164" value="" style="endArrow=classic;html=1;rounded=0;endSize=5;startSize=5;" parent="1" edge="1">
          <mxGeometry width="50" height="50" relative="1" as="geometry">
            <mxPoint x="715" y="215" as="sourcePoint" />
            <mxPoint x="670" y="215" as="targetPoint" />
          </mxGeometry>
        </mxCell>
        <mxCell id="nZrIzRFGk8cbZhAz8b9w-165" value="" style="endArrow=classic;html=1;rounded=0;endSize=5;startSize=5;" parent="1" edge="1">
          <mxGeometry width="50" height="50" relative="1" as="geometry">
            <mxPoint x="715" y="180" as="sourcePoint" />
            <mxPoint x="685" y="179.82999999999998" as="targetPoint" />
          </mxGeometry>
        </mxCell>
        <mxCell id="nZrIzRFGk8cbZhAz8b9w-166" value="" style="endArrow=classic;html=1;rounded=0;endSize=5;startSize=5;" parent="1" edge="1">
          <mxGeometry width="50" height="50" relative="1" as="geometry">
            <mxPoint x="715" y="144.82999999999998" as="sourcePoint" />
            <mxPoint x="670" y="144.82999999999998" as="targetPoint" />
          </mxGeometry>
        </mxCell>
        <mxCell id="nZrIzRFGk8cbZhAz8b9w-167" value="Class 1 data added" style="text;html=1;align=left;verticalAlign=middle;whiteSpace=wrap;rounded=0;" parent="1" vertex="1">
          <mxGeometry x="735" y="135" width="115" height="20" as="geometry" />
        </mxCell>
        <mxCell id="nZrIzRFGk8cbZhAz8b9w-168" value="Class 2 data added" style="text;html=1;align=left;verticalAlign=middle;whiteSpace=wrap;rounded=0;" parent="1" vertex="1">
          <mxGeometry x="735" y="170" width="115" height="20" as="geometry" />
        </mxCell>
        <mxCell id="nZrIzRFGk8cbZhAz8b9w-169" value="Class 3 data added" style="text;html=1;align=left;verticalAlign=middle;whiteSpace=wrap;rounded=0;" parent="1" vertex="1">
          <mxGeometry x="735" y="205" width="115" height="20" as="geometry" />
        </mxCell>
      </root>
    </mxGraphModel>
  </diagram>
  <diagram name="on-demand-how-it-works" id="j4t3ybSGnqXuUJ6srQ2N">
    <mxGraphModel dx="1434" dy="836" grid="1" gridSize="1" guides="1" tooltips="1" connect="1" arrows="1" fold="1" page="1" pageScale="1" pageWidth="1169" pageHeight="827" math="0" shadow="0">
      <root>
        <mxCell id="u8lqBTQxnhdtsWk9XEOW-0" />
        <mxCell id="u8lqBTQxnhdtsWk9XEOW-1" parent="u8lqBTQxnhdtsWk9XEOW-0" />
        <mxCell id="PyvO0r42SVvUB8iyPPR6-103" value="Bucket 1" style="rounded=0;whiteSpace=wrap;html=1;fillColor=#f5f5f5;verticalAlign=bottom;fontColor=#333333;strokeColor=#666666;" parent="u8lqBTQxnhdtsWk9XEOW-1" vertex="1">
          <mxGeometry x="195" y="104" width="96" height="118" as="geometry" />
        </mxCell>
        <mxCell id="PyvO0r42SVvUB8iyPPR6-104" value="Bucket 2" style="rounded=0;whiteSpace=wrap;html=1;fillColor=#f5f5f5;verticalAlign=bottom;fontColor=#333333;strokeColor=#666666;" parent="u8lqBTQxnhdtsWk9XEOW-1" vertex="1">
          <mxGeometry x="291" y="104" width="96" height="118" as="geometry" />
        </mxCell>
        <mxCell id="PyvO0r42SVvUB8iyPPR6-105" value="Bucket 3" style="rounded=0;whiteSpace=wrap;html=1;fillColor=#f5f5f5;verticalAlign=bottom;fontColor=#333333;strokeColor=#666666;" parent="u8lqBTQxnhdtsWk9XEOW-1" vertex="1">
          <mxGeometry x="387" y="104" width="96" height="118" as="geometry" />
        </mxCell>
        <mxCell id="u8lqBTQxnhdtsWk9XEOW-2" value="Timestamped Data" style="rounded=0;whiteSpace=wrap;html=1;verticalAlign=top;fillColor=none;" parent="u8lqBTQxnhdtsWk9XEOW-1" vertex="1">
          <mxGeometry x="16" y="76" width="655" height="180" as="geometry" />
        </mxCell>
        <mxCell id="u8lqBTQxnhdtsWk9XEOW-8" value="" style="endArrow=classic;startArrow=classic;html=1;rounded=0;startSize=5;endSize=5;" parent="u8lqBTQxnhdtsWk9XEOW-1" edge="1">
          <mxGeometry width="50" height="50" relative="1" as="geometry">
            <mxPoint x="98" y="296" as="sourcePoint" />
            <mxPoint x="671" y="296" as="targetPoint" />
          </mxGeometry>
        </mxCell>
        <mxCell id="u8lqBTQxnhdtsWk9XEOW-9" value="Window length" style="text;html=1;align=center;verticalAlign=middle;whiteSpace=wrap;rounded=0;" parent="u8lqBTQxnhdtsWk9XEOW-1" vertex="1">
          <mxGeometry x="98" y="301" width="573" height="20" as="geometry" />
        </mxCell>
        <mxCell id="u8lqBTQxnhdtsWk9XEOW-10" value="" style="endArrow=classic;html=1;rounded=0;endSize=5;startSize=5;" parent="u8lqBTQxnhdtsWk9XEOW-1" edge="1">
          <mxGeometry width="50" height="50" relative="1" as="geometry">
            <mxPoint x="16" y="36" as="sourcePoint" />
            <mxPoint x="671" y="36" as="targetPoint" />
          </mxGeometry>
        </mxCell>
        <mxCell id="u8lqBTQxnhdtsWk9XEOW-11" value="Earlier" style="text;html=1;align=left;verticalAlign=middle;whiteSpace=wrap;rounded=0;" parent="u8lqBTQxnhdtsWk9XEOW-1" vertex="1">
          <mxGeometry x="16" y="16" width="70" height="15" as="geometry" />
        </mxCell>
        <mxCell id="u8lqBTQxnhdtsWk9XEOW-12" value="Now" style="text;html=1;align=right;verticalAlign=middle;whiteSpace=wrap;rounded=0;" parent="u8lqBTQxnhdtsWk9XEOW-1" vertex="1">
          <mxGeometry x="601" y="18" width="70" height="15" as="geometry" />
        </mxCell>
        <mxCell id="u8lqBTQxnhdtsWk9XEOW-89" value="" style="ellipse;whiteSpace=wrap;html=1;aspect=fixed;fillColor=#dae8fc;strokeColor=#6c8ebf;" parent="u8lqBTQxnhdtsWk9XEOW-1" vertex="1">
          <mxGeometry x="36" y="116" width="10" height="10" as="geometry" />
        </mxCell>
        <mxCell id="yliMd0mXmWSydSUUPgSV-45" value="" style="ellipse;whiteSpace=wrap;html=1;aspect=fixed;fillColor=#d5e8d4;strokeColor=#82b366;" parent="u8lqBTQxnhdtsWk9XEOW-1" vertex="1">
          <mxGeometry x="36" y="151" width="10" height="10" as="geometry" />
        </mxCell>
        <mxCell id="cKGq-vlX_r18SRZPMEJ0-8" value="" style="ellipse;whiteSpace=wrap;html=1;aspect=fixed;fillColor=#dae8fc;strokeColor=#6c8ebf;" parent="u8lqBTQxnhdtsWk9XEOW-1" vertex="1">
          <mxGeometry x="68" y="116" width="10" height="10" as="geometry" />
        </mxCell>
        <mxCell id="cKGq-vlX_r18SRZPMEJ0-9" value="" style="ellipse;whiteSpace=wrap;html=1;aspect=fixed;fillColor=#dae8fc;strokeColor=#6c8ebf;" parent="u8lqBTQxnhdtsWk9XEOW-1" vertex="1">
          <mxGeometry x="84" y="116" width="10" height="10" as="geometry" />
        </mxCell>
        <mxCell id="cKGq-vlX_r18SRZPMEJ0-11" value="" style="ellipse;whiteSpace=wrap;html=1;aspect=fixed;fillColor=#dae8fc;strokeColor=#6c8ebf;" parent="u8lqBTQxnhdtsWk9XEOW-1" vertex="1">
          <mxGeometry x="118" y="116" width="10" height="10" as="geometry" />
        </mxCell>
        <mxCell id="cKGq-vlX_r18SRZPMEJ0-12" value="" style="ellipse;whiteSpace=wrap;html=1;aspect=fixed;fillColor=#dae8fc;strokeColor=#6c8ebf;" parent="u8lqBTQxnhdtsWk9XEOW-1" vertex="1">
          <mxGeometry x="134" y="116" width="10" height="10" as="geometry" />
        </mxCell>
        <mxCell id="cKGq-vlX_r18SRZPMEJ0-14" value="" style="ellipse;whiteSpace=wrap;html=1;aspect=fixed;fillColor=#dae8fc;strokeColor=#6c8ebf;" parent="u8lqBTQxnhdtsWk9XEOW-1" vertex="1">
          <mxGeometry x="166" y="116" width="10" height="10" as="geometry" />
        </mxCell>
        <mxCell id="cKGq-vlX_r18SRZPMEJ0-15" value="" style="ellipse;whiteSpace=wrap;html=1;aspect=fixed;fillColor=#dae8fc;strokeColor=#6c8ebf;" parent="u8lqBTQxnhdtsWk9XEOW-1" vertex="1">
          <mxGeometry x="182" y="116" width="10" height="10" as="geometry" />
        </mxCell>
        <mxCell id="cKGq-vlX_r18SRZPMEJ0-16" value="" style="ellipse;whiteSpace=wrap;html=1;aspect=fixed;fillColor=#dae8fc;strokeColor=#6c8ebf;" parent="u8lqBTQxnhdtsWk9XEOW-1" vertex="1">
          <mxGeometry x="198" y="116" width="10" height="10" as="geometry" />
        </mxCell>
        <mxCell id="cKGq-vlX_r18SRZPMEJ0-18" value="" style="ellipse;whiteSpace=wrap;html=1;aspect=fixed;fillColor=#dae8fc;strokeColor=#6c8ebf;" parent="u8lqBTQxnhdtsWk9XEOW-1" vertex="1">
          <mxGeometry x="230" y="116" width="10" height="10" as="geometry" />
        </mxCell>
        <mxCell id="cKGq-vlX_r18SRZPMEJ0-20" value="" style="ellipse;whiteSpace=wrap;html=1;aspect=fixed;fillColor=#dae8fc;strokeColor=#6c8ebf;" parent="u8lqBTQxnhdtsWk9XEOW-1" vertex="1">
          <mxGeometry x="262" y="116" width="10" height="10" as="geometry" />
        </mxCell>
        <mxCell id="cKGq-vlX_r18SRZPMEJ0-21" value="" style="ellipse;whiteSpace=wrap;html=1;aspect=fixed;fillColor=#dae8fc;strokeColor=#6c8ebf;" parent="u8lqBTQxnhdtsWk9XEOW-1" vertex="1">
          <mxGeometry x="278" y="116" width="10" height="10" as="geometry" />
        </mxCell>
        <mxCell id="cKGq-vlX_r18SRZPMEJ0-23" value="" style="ellipse;whiteSpace=wrap;html=1;aspect=fixed;fillColor=#dae8fc;strokeColor=#6c8ebf;" parent="u8lqBTQxnhdtsWk9XEOW-1" vertex="1">
          <mxGeometry x="310" y="116" width="10" height="10" as="geometry" />
        </mxCell>
        <mxCell id="cKGq-vlX_r18SRZPMEJ0-24" value="" style="ellipse;whiteSpace=wrap;html=1;aspect=fixed;fillColor=#dae8fc;strokeColor=#6c8ebf;" parent="u8lqBTQxnhdtsWk9XEOW-1" vertex="1">
          <mxGeometry x="326" y="116" width="10" height="10" as="geometry" />
        </mxCell>
        <mxCell id="cKGq-vlX_r18SRZPMEJ0-25" value="" style="ellipse;whiteSpace=wrap;html=1;aspect=fixed;fillColor=#dae8fc;strokeColor=#6c8ebf;" parent="u8lqBTQxnhdtsWk9XEOW-1" vertex="1">
          <mxGeometry x="342" y="116" width="10" height="10" as="geometry" />
        </mxCell>
        <mxCell id="cKGq-vlX_r18SRZPMEJ0-26" value="" style="ellipse;whiteSpace=wrap;html=1;aspect=fixed;fillColor=#dae8fc;strokeColor=#6c8ebf;" parent="u8lqBTQxnhdtsWk9XEOW-1" vertex="1">
          <mxGeometry x="358" y="116" width="10" height="10" as="geometry" />
        </mxCell>
        <mxCell id="cKGq-vlX_r18SRZPMEJ0-28" value="" style="ellipse;whiteSpace=wrap;html=1;aspect=fixed;fillColor=#dae8fc;strokeColor=#6c8ebf;" parent="u8lqBTQxnhdtsWk9XEOW-1" vertex="1">
          <mxGeometry x="390" y="116" width="10" height="10" as="geometry" />
        </mxCell>
        <mxCell id="cKGq-vlX_r18SRZPMEJ0-30" value="" style="ellipse;whiteSpace=wrap;html=1;aspect=fixed;fillColor=#dae8fc;strokeColor=#6c8ebf;" parent="u8lqBTQxnhdtsWk9XEOW-1" vertex="1">
          <mxGeometry x="422" y="116" width="10" height="10" as="geometry" />
        </mxCell>
        <mxCell id="cKGq-vlX_r18SRZPMEJ0-31" value="" style="ellipse;whiteSpace=wrap;html=1;aspect=fixed;fillColor=#dae8fc;strokeColor=#6c8ebf;" parent="u8lqBTQxnhdtsWk9XEOW-1" vertex="1">
          <mxGeometry x="438" y="116" width="10" height="10" as="geometry" />
        </mxCell>
        <mxCell id="cKGq-vlX_r18SRZPMEJ0-32" value="" style="ellipse;whiteSpace=wrap;html=1;aspect=fixed;fillColor=#dae8fc;strokeColor=#6c8ebf;" parent="u8lqBTQxnhdtsWk9XEOW-1" vertex="1">
          <mxGeometry x="454" y="116" width="10" height="10" as="geometry" />
        </mxCell>
        <mxCell id="cKGq-vlX_r18SRZPMEJ0-34" value="" style="ellipse;whiteSpace=wrap;html=1;aspect=fixed;fillColor=#dae8fc;strokeColor=#6c8ebf;" parent="u8lqBTQxnhdtsWk9XEOW-1" vertex="1">
          <mxGeometry x="486" y="116" width="10" height="10" as="geometry" />
        </mxCell>
        <mxCell id="cKGq-vlX_r18SRZPMEJ0-35" value="" style="ellipse;whiteSpace=wrap;html=1;aspect=fixed;fillColor=#dae8fc;strokeColor=#6c8ebf;" parent="u8lqBTQxnhdtsWk9XEOW-1" vertex="1">
          <mxGeometry x="502" y="116" width="10" height="10" as="geometry" />
        </mxCell>
        <mxCell id="cKGq-vlX_r18SRZPMEJ0-37" value="" style="ellipse;whiteSpace=wrap;html=1;aspect=fixed;fillColor=#dae8fc;strokeColor=#6c8ebf;" parent="u8lqBTQxnhdtsWk9XEOW-1" vertex="1">
          <mxGeometry x="534" y="116" width="10" height="10" as="geometry" />
        </mxCell>
        <mxCell id="cKGq-vlX_r18SRZPMEJ0-39" value="" style="ellipse;whiteSpace=wrap;html=1;aspect=fixed;fillColor=#dae8fc;strokeColor=#6c8ebf;" parent="u8lqBTQxnhdtsWk9XEOW-1" vertex="1">
          <mxGeometry x="566" y="116" width="10" height="10" as="geometry" />
        </mxCell>
        <mxCell id="cKGq-vlX_r18SRZPMEJ0-40" value="" style="ellipse;whiteSpace=wrap;html=1;aspect=fixed;fillColor=#dae8fc;strokeColor=#6c8ebf;" parent="u8lqBTQxnhdtsWk9XEOW-1" vertex="1">
          <mxGeometry x="582" y="116" width="10" height="10" as="geometry" />
        </mxCell>
        <mxCell id="cKGq-vlX_r18SRZPMEJ0-41" value="" style="ellipse;whiteSpace=wrap;html=1;aspect=fixed;fillColor=#dae8fc;strokeColor=#6c8ebf;" parent="u8lqBTQxnhdtsWk9XEOW-1" vertex="1">
          <mxGeometry x="598" y="116" width="10" height="10" as="geometry" />
        </mxCell>
        <mxCell id="cKGq-vlX_r18SRZPMEJ0-42" value="" style="ellipse;whiteSpace=wrap;html=1;aspect=fixed;fillColor=#dae8fc;strokeColor=#6c8ebf;" parent="u8lqBTQxnhdtsWk9XEOW-1" vertex="1">
          <mxGeometry x="614" y="116" width="10" height="10" as="geometry" />
        </mxCell>
        <mxCell id="cKGq-vlX_r18SRZPMEJ0-43" value="" style="ellipse;whiteSpace=wrap;html=1;aspect=fixed;fillColor=#dae8fc;strokeColor=#6c8ebf;" parent="u8lqBTQxnhdtsWk9XEOW-1" vertex="1">
          <mxGeometry x="630" y="116" width="10" height="10" as="geometry" />
        </mxCell>
        <mxCell id="PyvO0r42SVvUB8iyPPR6-1" value="" style="ellipse;whiteSpace=wrap;html=1;aspect=fixed;fillColor=#d5e8d4;strokeColor=#82b366;" parent="u8lqBTQxnhdtsWk9XEOW-1" vertex="1">
          <mxGeometry x="68" y="151" width="10" height="10" as="geometry" />
        </mxCell>
        <mxCell id="PyvO0r42SVvUB8iyPPR6-3" value="" style="ellipse;whiteSpace=wrap;html=1;aspect=fixed;fillColor=#d5e8d4;strokeColor=#82b366;" parent="u8lqBTQxnhdtsWk9XEOW-1" vertex="1">
          <mxGeometry x="102" y="151" width="10" height="10" as="geometry" />
        </mxCell>
        <mxCell id="PyvO0r42SVvUB8iyPPR6-5" value="" style="ellipse;whiteSpace=wrap;html=1;aspect=fixed;fillColor=#d5e8d4;strokeColor=#82b366;" parent="u8lqBTQxnhdtsWk9XEOW-1" vertex="1">
          <mxGeometry x="134" y="151" width="10" height="10" as="geometry" />
        </mxCell>
        <mxCell id="PyvO0r42SVvUB8iyPPR6-6" value="" style="ellipse;whiteSpace=wrap;html=1;aspect=fixed;fillColor=#d5e8d4;strokeColor=#82b366;" parent="u8lqBTQxnhdtsWk9XEOW-1" vertex="1">
          <mxGeometry x="150" y="151" width="10" height="10" as="geometry" />
        </mxCell>
        <mxCell id="PyvO0r42SVvUB8iyPPR6-7" value="" style="ellipse;whiteSpace=wrap;html=1;aspect=fixed;fillColor=#d5e8d4;strokeColor=#82b366;" parent="u8lqBTQxnhdtsWk9XEOW-1" vertex="1">
          <mxGeometry x="166" y="151" width="10" height="10" as="geometry" />
        </mxCell>
        <mxCell id="PyvO0r42SVvUB8iyPPR6-8" value="" style="ellipse;whiteSpace=wrap;html=1;aspect=fixed;fillColor=#d5e8d4;strokeColor=#82b366;" parent="u8lqBTQxnhdtsWk9XEOW-1" vertex="1">
          <mxGeometry x="182" y="151" width="10" height="10" as="geometry" />
        </mxCell>
        <mxCell id="PyvO0r42SVvUB8iyPPR6-10" value="" style="ellipse;whiteSpace=wrap;html=1;aspect=fixed;fillColor=#d5e8d4;strokeColor=#82b366;" parent="u8lqBTQxnhdtsWk9XEOW-1" vertex="1">
          <mxGeometry x="214" y="151" width="10" height="10" as="geometry" />
        </mxCell>
        <mxCell id="PyvO0r42SVvUB8iyPPR6-11" value="" style="ellipse;whiteSpace=wrap;html=1;aspect=fixed;fillColor=#d5e8d4;strokeColor=#82b366;" parent="u8lqBTQxnhdtsWk9XEOW-1" vertex="1">
          <mxGeometry x="230" y="151" width="10" height="10" as="geometry" />
        </mxCell>
        <mxCell id="PyvO0r42SVvUB8iyPPR6-13" value="" style="ellipse;whiteSpace=wrap;html=1;aspect=fixed;fillColor=#d5e8d4;strokeColor=#82b366;" parent="u8lqBTQxnhdtsWk9XEOW-1" vertex="1">
          <mxGeometry x="262" y="151" width="10" height="10" as="geometry" />
        </mxCell>
        <mxCell id="PyvO0r42SVvUB8iyPPR6-15" value="" style="ellipse;whiteSpace=wrap;html=1;aspect=fixed;fillColor=#d5e8d4;strokeColor=#82b366;" parent="u8lqBTQxnhdtsWk9XEOW-1" vertex="1">
          <mxGeometry x="294" y="151" width="10" height="10" as="geometry" />
        </mxCell>
        <mxCell id="PyvO0r42SVvUB8iyPPR6-16" value="" style="ellipse;whiteSpace=wrap;html=1;aspect=fixed;fillColor=#d5e8d4;strokeColor=#82b366;" parent="u8lqBTQxnhdtsWk9XEOW-1" vertex="1">
          <mxGeometry x="310" y="151" width="10" height="10" as="geometry" />
        </mxCell>
        <mxCell id="PyvO0r42SVvUB8iyPPR6-17" value="" style="ellipse;whiteSpace=wrap;html=1;aspect=fixed;fillColor=#d5e8d4;strokeColor=#82b366;" parent="u8lqBTQxnhdtsWk9XEOW-1" vertex="1">
          <mxGeometry x="326" y="151" width="10" height="10" as="geometry" />
        </mxCell>
        <mxCell id="PyvO0r42SVvUB8iyPPR6-19" value="" style="ellipse;whiteSpace=wrap;html=1;aspect=fixed;fillColor=#d5e8d4;strokeColor=#82b366;" parent="u8lqBTQxnhdtsWk9XEOW-1" vertex="1">
          <mxGeometry x="358" y="151" width="10" height="10" as="geometry" />
        </mxCell>
        <mxCell id="PyvO0r42SVvUB8iyPPR6-20" value="" style="ellipse;whiteSpace=wrap;html=1;aspect=fixed;fillColor=#d5e8d4;strokeColor=#82b366;" parent="u8lqBTQxnhdtsWk9XEOW-1" vertex="1">
          <mxGeometry x="374" y="151" width="10" height="10" as="geometry" />
        </mxCell>
        <mxCell id="PyvO0r42SVvUB8iyPPR6-21" value="" style="ellipse;whiteSpace=wrap;html=1;aspect=fixed;fillColor=#d5e8d4;strokeColor=#82b366;" parent="u8lqBTQxnhdtsWk9XEOW-1" vertex="1">
          <mxGeometry x="390" y="151" width="10" height="10" as="geometry" />
        </mxCell>
        <mxCell id="PyvO0r42SVvUB8iyPPR6-22" value="" style="ellipse;whiteSpace=wrap;html=1;aspect=fixed;fillColor=#d5e8d4;strokeColor=#82b366;" parent="u8lqBTQxnhdtsWk9XEOW-1" vertex="1">
          <mxGeometry x="406" y="151" width="10" height="10" as="geometry" />
        </mxCell>
        <mxCell id="PyvO0r42SVvUB8iyPPR6-24" value="" style="ellipse;whiteSpace=wrap;html=1;aspect=fixed;fillColor=#d5e8d4;strokeColor=#82b366;" parent="u8lqBTQxnhdtsWk9XEOW-1" vertex="1">
          <mxGeometry x="438" y="151" width="10" height="10" as="geometry" />
        </mxCell>
        <mxCell id="PyvO0r42SVvUB8iyPPR6-26" value="" style="ellipse;whiteSpace=wrap;html=1;aspect=fixed;fillColor=#d5e8d4;strokeColor=#82b366;" parent="u8lqBTQxnhdtsWk9XEOW-1" vertex="1">
          <mxGeometry x="470" y="151" width="10" height="10" as="geometry" />
        </mxCell>
        <mxCell id="PyvO0r42SVvUB8iyPPR6-27" value="" style="ellipse;whiteSpace=wrap;html=1;aspect=fixed;fillColor=#d5e8d4;strokeColor=#82b366;" parent="u8lqBTQxnhdtsWk9XEOW-1" vertex="1">
          <mxGeometry x="486" y="151" width="10" height="10" as="geometry" />
        </mxCell>
        <mxCell id="PyvO0r42SVvUB8iyPPR6-29" value="" style="ellipse;whiteSpace=wrap;html=1;aspect=fixed;fillColor=#d5e8d4;strokeColor=#82b366;" parent="u8lqBTQxnhdtsWk9XEOW-1" vertex="1">
          <mxGeometry x="518" y="151" width="10" height="10" as="geometry" />
        </mxCell>
        <mxCell id="PyvO0r42SVvUB8iyPPR6-30" value="" style="ellipse;whiteSpace=wrap;html=1;aspect=fixed;fillColor=#d5e8d4;strokeColor=#82b366;" parent="u8lqBTQxnhdtsWk9XEOW-1" vertex="1">
          <mxGeometry x="534" y="151" width="10" height="10" as="geometry" />
        </mxCell>
        <mxCell id="PyvO0r42SVvUB8iyPPR6-31" value="" style="ellipse;whiteSpace=wrap;html=1;aspect=fixed;fillColor=#d5e8d4;strokeColor=#82b366;" parent="u8lqBTQxnhdtsWk9XEOW-1" vertex="1">
          <mxGeometry x="550" y="151" width="10" height="10" as="geometry" />
        </mxCell>
        <mxCell id="PyvO0r42SVvUB8iyPPR6-33" value="" style="ellipse;whiteSpace=wrap;html=1;aspect=fixed;fillColor=#d5e8d4;strokeColor=#82b366;" parent="u8lqBTQxnhdtsWk9XEOW-1" vertex="1">
          <mxGeometry x="582" y="151" width="10" height="10" as="geometry" />
        </mxCell>
        <mxCell id="PyvO0r42SVvUB8iyPPR6-34" value="" style="ellipse;whiteSpace=wrap;html=1;aspect=fixed;fillColor=#d5e8d4;strokeColor=#82b366;" parent="u8lqBTQxnhdtsWk9XEOW-1" vertex="1">
          <mxGeometry x="598" y="151" width="10" height="10" as="geometry" />
        </mxCell>
        <mxCell id="PyvO0r42SVvUB8iyPPR6-35" value="" style="ellipse;whiteSpace=wrap;html=1;aspect=fixed;fillColor=#d5e8d4;strokeColor=#82b366;" parent="u8lqBTQxnhdtsWk9XEOW-1" vertex="1">
          <mxGeometry x="614" y="151" width="10" height="10" as="geometry" />
        </mxCell>
        <mxCell id="PyvO0r42SVvUB8iyPPR6-36" value="" style="ellipse;whiteSpace=wrap;html=1;aspect=fixed;fillColor=#d5e8d4;strokeColor=#82b366;" parent="u8lqBTQxnhdtsWk9XEOW-1" vertex="1">
          <mxGeometry x="630" y="151" width="10" height="10" as="geometry" />
        </mxCell>
        <mxCell id="PyvO0r42SVvUB8iyPPR6-75" value="" style="ellipse;whiteSpace=wrap;html=1;aspect=fixed;fillColor=#ffe6cc;strokeColor=#d79b00;" parent="u8lqBTQxnhdtsWk9XEOW-1" vertex="1">
          <mxGeometry x="36" y="186" width="10" height="10" as="geometry" />
        </mxCell>
        <mxCell id="PyvO0r42SVvUB8iyPPR6-76" value="" style="ellipse;whiteSpace=wrap;html=1;aspect=fixed;fillColor=#ffe6cc;strokeColor=#d79b00;" parent="u8lqBTQxnhdtsWk9XEOW-1" vertex="1">
          <mxGeometry x="68" y="186" width="10" height="10" as="geometry" />
        </mxCell>
        <mxCell id="PyvO0r42SVvUB8iyPPR6-77" value="" style="ellipse;whiteSpace=wrap;html=1;aspect=fixed;fillColor=#ffe6cc;strokeColor=#d79b00;" parent="u8lqBTQxnhdtsWk9XEOW-1" vertex="1">
          <mxGeometry x="84" y="186" width="10" height="10" as="geometry" />
        </mxCell>
        <mxCell id="PyvO0r42SVvUB8iyPPR6-78" value="" style="ellipse;whiteSpace=wrap;html=1;aspect=fixed;fillColor=#ffe6cc;strokeColor=#d79b00;" parent="u8lqBTQxnhdtsWk9XEOW-1" vertex="1">
          <mxGeometry x="118" y="186" width="10" height="10" as="geometry" />
        </mxCell>
        <mxCell id="PyvO0r42SVvUB8iyPPR6-79" value="" style="ellipse;whiteSpace=wrap;html=1;aspect=fixed;fillColor=#ffe6cc;strokeColor=#d79b00;" parent="u8lqBTQxnhdtsWk9XEOW-1" vertex="1">
          <mxGeometry x="134" y="186" width="10" height="10" as="geometry" />
        </mxCell>
        <mxCell id="PyvO0r42SVvUB8iyPPR6-80" value="" style="ellipse;whiteSpace=wrap;html=1;aspect=fixed;fillColor=#ffe6cc;strokeColor=#d79b00;" parent="u8lqBTQxnhdtsWk9XEOW-1" vertex="1">
          <mxGeometry x="166" y="186" width="10" height="10" as="geometry" />
        </mxCell>
        <mxCell id="PyvO0r42SVvUB8iyPPR6-81" value="" style="ellipse;whiteSpace=wrap;html=1;aspect=fixed;fillColor=#ffe6cc;strokeColor=#d79b00;" parent="u8lqBTQxnhdtsWk9XEOW-1" vertex="1">
          <mxGeometry x="182" y="186" width="10" height="10" as="geometry" />
        </mxCell>
        <mxCell id="PyvO0r42SVvUB8iyPPR6-82" value="" style="ellipse;whiteSpace=wrap;html=1;aspect=fixed;fillColor=#ffe6cc;strokeColor=#d79b00;" parent="u8lqBTQxnhdtsWk9XEOW-1" vertex="1">
          <mxGeometry x="198" y="186" width="10" height="10" as="geometry" />
        </mxCell>
        <mxCell id="PyvO0r42SVvUB8iyPPR6-83" value="" style="ellipse;whiteSpace=wrap;html=1;aspect=fixed;fillColor=#ffe6cc;strokeColor=#d79b00;" parent="u8lqBTQxnhdtsWk9XEOW-1" vertex="1">
          <mxGeometry x="230" y="186" width="10" height="10" as="geometry" />
        </mxCell>
        <mxCell id="PyvO0r42SVvUB8iyPPR6-84" value="" style="ellipse;whiteSpace=wrap;html=1;aspect=fixed;fillColor=#ffe6cc;strokeColor=#d79b00;" parent="u8lqBTQxnhdtsWk9XEOW-1" vertex="1">
          <mxGeometry x="262" y="186" width="10" height="10" as="geometry" />
        </mxCell>
        <mxCell id="PyvO0r42SVvUB8iyPPR6-85" value="" style="ellipse;whiteSpace=wrap;html=1;aspect=fixed;fillColor=#ffe6cc;strokeColor=#d79b00;" parent="u8lqBTQxnhdtsWk9XEOW-1" vertex="1">
          <mxGeometry x="278" y="186" width="10" height="10" as="geometry" />
        </mxCell>
        <mxCell id="PyvO0r42SVvUB8iyPPR6-86" value="" style="ellipse;whiteSpace=wrap;html=1;aspect=fixed;fillColor=#ffe6cc;strokeColor=#d79b00;" parent="u8lqBTQxnhdtsWk9XEOW-1" vertex="1">
          <mxGeometry x="310" y="186" width="10" height="10" as="geometry" />
        </mxCell>
        <mxCell id="PyvO0r42SVvUB8iyPPR6-87" value="" style="ellipse;whiteSpace=wrap;html=1;aspect=fixed;fillColor=#ffe6cc;strokeColor=#d79b00;" parent="u8lqBTQxnhdtsWk9XEOW-1" vertex="1">
          <mxGeometry x="326" y="186" width="10" height="10" as="geometry" />
        </mxCell>
        <mxCell id="PyvO0r42SVvUB8iyPPR6-88" value="" style="ellipse;whiteSpace=wrap;html=1;aspect=fixed;fillColor=#ffe6cc;strokeColor=#d79b00;" parent="u8lqBTQxnhdtsWk9XEOW-1" vertex="1">
          <mxGeometry x="342" y="186" width="10" height="10" as="geometry" />
        </mxCell>
        <mxCell id="PyvO0r42SVvUB8iyPPR6-89" value="" style="ellipse;whiteSpace=wrap;html=1;aspect=fixed;fillColor=#ffe6cc;strokeColor=#d79b00;" parent="u8lqBTQxnhdtsWk9XEOW-1" vertex="1">
          <mxGeometry x="358" y="186" width="10" height="10" as="geometry" />
        </mxCell>
        <mxCell id="PyvO0r42SVvUB8iyPPR6-90" value="" style="ellipse;whiteSpace=wrap;html=1;aspect=fixed;fillColor=#ffe6cc;strokeColor=#d79b00;" parent="u8lqBTQxnhdtsWk9XEOW-1" vertex="1">
          <mxGeometry x="390" y="186" width="10" height="10" as="geometry" />
        </mxCell>
        <mxCell id="PyvO0r42SVvUB8iyPPR6-91" value="" style="ellipse;whiteSpace=wrap;html=1;aspect=fixed;fillColor=#ffe6cc;strokeColor=#d79b00;" parent="u8lqBTQxnhdtsWk9XEOW-1" vertex="1">
          <mxGeometry x="422" y="186" width="10" height="10" as="geometry" />
        </mxCell>
        <mxCell id="PyvO0r42SVvUB8iyPPR6-92" value="" style="ellipse;whiteSpace=wrap;html=1;aspect=fixed;fillColor=#ffe6cc;strokeColor=#d79b00;" parent="u8lqBTQxnhdtsWk9XEOW-1" vertex="1">
          <mxGeometry x="438" y="186" width="10" height="10" as="geometry" />
        </mxCell>
        <mxCell id="PyvO0r42SVvUB8iyPPR6-93" value="" style="ellipse;whiteSpace=wrap;html=1;aspect=fixed;fillColor=#ffe6cc;strokeColor=#d79b00;" parent="u8lqBTQxnhdtsWk9XEOW-1" vertex="1">
          <mxGeometry x="454" y="186" width="10" height="10" as="geometry" />
        </mxCell>
        <mxCell id="PyvO0r42SVvUB8iyPPR6-94" value="" style="ellipse;whiteSpace=wrap;html=1;aspect=fixed;fillColor=#ffe6cc;strokeColor=#d79b00;" parent="u8lqBTQxnhdtsWk9XEOW-1" vertex="1">
          <mxGeometry x="486" y="186" width="10" height="10" as="geometry" />
        </mxCell>
        <mxCell id="PyvO0r42SVvUB8iyPPR6-95" value="" style="ellipse;whiteSpace=wrap;html=1;aspect=fixed;fillColor=#ffe6cc;strokeColor=#d79b00;" parent="u8lqBTQxnhdtsWk9XEOW-1" vertex="1">
          <mxGeometry x="502" y="186" width="10" height="10" as="geometry" />
        </mxCell>
        <mxCell id="PyvO0r42SVvUB8iyPPR6-96" value="" style="ellipse;whiteSpace=wrap;html=1;aspect=fixed;fillColor=#ffe6cc;strokeColor=#d79b00;" parent="u8lqBTQxnhdtsWk9XEOW-1" vertex="1">
          <mxGeometry x="534" y="186" width="10" height="10" as="geometry" />
        </mxCell>
        <mxCell id="PyvO0r42SVvUB8iyPPR6-97" value="" style="ellipse;whiteSpace=wrap;html=1;aspect=fixed;fillColor=#ffe6cc;strokeColor=#d79b00;" parent="u8lqBTQxnhdtsWk9XEOW-1" vertex="1">
          <mxGeometry x="566" y="186" width="10" height="10" as="geometry" />
        </mxCell>
        <mxCell id="PyvO0r42SVvUB8iyPPR6-98" value="" style="ellipse;whiteSpace=wrap;html=1;aspect=fixed;fillColor=#ffe6cc;strokeColor=#d79b00;" parent="u8lqBTQxnhdtsWk9XEOW-1" vertex="1">
          <mxGeometry x="582" y="186" width="10" height="10" as="geometry" />
        </mxCell>
        <mxCell id="PyvO0r42SVvUB8iyPPR6-99" value="" style="ellipse;whiteSpace=wrap;html=1;aspect=fixed;fillColor=#ffe6cc;strokeColor=#d79b00;" parent="u8lqBTQxnhdtsWk9XEOW-1" vertex="1">
          <mxGeometry x="598" y="186" width="10" height="10" as="geometry" />
        </mxCell>
        <mxCell id="PyvO0r42SVvUB8iyPPR6-100" value="" style="ellipse;whiteSpace=wrap;html=1;aspect=fixed;fillColor=#ffe6cc;strokeColor=#d79b00;" parent="u8lqBTQxnhdtsWk9XEOW-1" vertex="1">
          <mxGeometry x="614" y="186" width="10" height="10" as="geometry" />
        </mxCell>
        <mxCell id="PyvO0r42SVvUB8iyPPR6-101" value="" style="ellipse;whiteSpace=wrap;html=1;aspect=fixed;fillColor=#ffe6cc;strokeColor=#d79b00;" parent="u8lqBTQxnhdtsWk9XEOW-1" vertex="1">
          <mxGeometry x="630" y="186" width="10" height="10" as="geometry" />
        </mxCell>
        <mxCell id="PyvO0r42SVvUB8iyPPR6-102" value="" style="endArrow=none;dashed=1;html=1;rounded=0;" parent="u8lqBTQxnhdtsWk9XEOW-1" edge="1">
          <mxGeometry width="50" height="50" relative="1" as="geometry">
            <mxPoint x="98" y="296" as="sourcePoint" />
            <mxPoint x="98" y="76" as="targetPoint" />
          </mxGeometry>
        </mxCell>
        <mxCell id="PyvO0r42SVvUB8iyPPR6-106" value="" style="endArrow=classic;html=1;rounded=0;dashed=1;endSize=5;startSize=5;" parent="u8lqBTQxnhdtsWk9XEOW-1" edge="1">
          <mxGeometry width="50" height="50" relative="1" as="geometry">
            <mxPoint x="195" y="212" as="sourcePoint" />
            <mxPoint x="98" y="212" as="targetPoint" />
          </mxGeometry>
        </mxCell>
        <mxCell id="UYA0jpHeR7VWDXzTTatK-0" value="" style="endArrow=classic;html=1;rounded=0;dashed=1;endSize=5;startSize=5;" parent="u8lqBTQxnhdtsWk9XEOW-1" edge="1">
          <mxGeometry width="50" height="50" relative="1" as="geometry">
            <mxPoint x="483" y="212" as="sourcePoint" />
            <mxPoint x="659" y="212" as="targetPoint" />
          </mxGeometry>
        </mxCell>
        <mxCell id="UYA0jpHeR7VWDXzTTatK-1" value="On-Demand View" style="text;html=1;align=center;verticalAlign=middle;whiteSpace=wrap;rounded=0;fontStyle=2" parent="u8lqBTQxnhdtsWk9XEOW-1" vertex="1">
          <mxGeometry x="195" y="222" width="288" height="19" as="geometry" />
        </mxCell>
        <mxCell id="9FtVxBGChhKV6BBjAJQD-0" value="" style="ellipse;whiteSpace=wrap;html=1;aspect=fixed;fillColor=#dae8fc;strokeColor=#6c8ebf;direction=south;" vertex="1" parent="u8lqBTQxnhdtsWk9XEOW-1">
          <mxGeometry x="696" y="115" width="10" height="10" as="geometry" />
        </mxCell>
        <mxCell id="9FtVxBGChhKV6BBjAJQD-1" value="" style="ellipse;whiteSpace=wrap;html=1;aspect=fixed;fillColor=#d5e8d4;strokeColor=#82b366;" vertex="1" parent="u8lqBTQxnhdtsWk9XEOW-1">
          <mxGeometry x="696" y="151" width="10" height="10" as="geometry" />
        </mxCell>
        <mxCell id="9FtVxBGChhKV6BBjAJQD-2" value="" style="ellipse;whiteSpace=wrap;html=1;aspect=fixed;fillColor=#ffe6cc;strokeColor=#d79b00;" vertex="1" parent="u8lqBTQxnhdtsWk9XEOW-1">
          <mxGeometry x="696" y="187" width="10" height="10" as="geometry" />
        </mxCell>
        <mxCell id="9FtVxBGChhKV6BBjAJQD-3" value="" style="endArrow=classic;html=1;rounded=0;endSize=5;startSize=5;" edge="1" parent="u8lqBTQxnhdtsWk9XEOW-1">
          <mxGeometry width="50" height="50" relative="1" as="geometry">
            <mxPoint x="691" y="192" as="sourcePoint" />
            <mxPoint x="651" y="192" as="targetPoint" />
          </mxGeometry>
        </mxCell>
        <mxCell id="9FtVxBGChhKV6BBjAJQD-5" value="" style="endArrow=classic;html=1;rounded=0;endSize=5;startSize=5;" edge="1" parent="u8lqBTQxnhdtsWk9XEOW-1">
          <mxGeometry width="50" height="50" relative="1" as="geometry">
            <mxPoint x="691" y="119.99999999999999" as="sourcePoint" />
            <mxPoint x="651" y="120" as="targetPoint" />
          </mxGeometry>
        </mxCell>
        <mxCell id="9FtVxBGChhKV6BBjAJQD-6" value="Class 1 data added" style="text;html=1;align=left;verticalAlign=middle;whiteSpace=wrap;rounded=0;" vertex="1" parent="u8lqBTQxnhdtsWk9XEOW-1">
          <mxGeometry x="711" y="110" width="115" height="20" as="geometry" />
        </mxCell>
        <mxCell id="9FtVxBGChhKV6BBjAJQD-7" value="Class 2 data added" style="text;html=1;align=left;verticalAlign=middle;whiteSpace=wrap;rounded=0;" vertex="1" parent="u8lqBTQxnhdtsWk9XEOW-1">
          <mxGeometry x="711" y="146" width="115" height="20" as="geometry" />
        </mxCell>
        <mxCell id="9FtVxBGChhKV6BBjAJQD-8" value="Class 3 data added" style="text;html=1;align=left;verticalAlign=middle;whiteSpace=wrap;rounded=0;" vertex="1" parent="u8lqBTQxnhdtsWk9XEOW-1">
          <mxGeometry x="711" y="182" width="115" height="20" as="geometry" />
        </mxCell>
        <mxCell id="9FtVxBGChhKV6BBjAJQD-9" value="" style="endArrow=classic;html=1;rounded=0;endSize=5;startSize=5;" edge="1" parent="u8lqBTQxnhdtsWk9XEOW-1">
          <mxGeometry width="50" height="50" relative="1" as="geometry">
            <mxPoint x="691" y="155.82999999999998" as="sourcePoint" />
            <mxPoint x="651" y="156" as="targetPoint" />
          </mxGeometry>
        </mxCell>
      </root>
    </mxGraphModel>
  </diagram>
</mxfile>
